# xmcd CD database file
#
# Track frame offsets:
#	150
#	17207
#	35783
#	56765
#	76348
#	102862
#	128171
#	148299
#	168641
#	190716
#	202678
#	218421
#	239193
#	264200
#
# Disc length: 3900 seconds
#
# Revision: 6
# Processed by: cddbd v1.5.2PL0 Copyright (c) Steve Scherf et al.
# Submitted via: CDex 1.70beta2
#
DISCID=c70f3a0e
DTITLE=Al Jarreau - Love Songs
DYEAR=2008
DGENRE=Jazz
TTITLE0=We're In This Love Together (Roger Murrah/Keith Stegall)
TTITLE1=Teach Me Tonight (Gene DePaul/Sammy Cahn)
TTITLE2=So Good (Peter Vale/Miles WAters/Sue Schifrin)
TTITLE3=After All (Al Jarreau/Jay Graydon/David Foster)
TTITLE4=Wait For The Magic (live) (Todd Urbanos)
TTITLE5=Your Song (Elton John/Bernie Taupin)
TTITLE6=Heaven And Earth (Louis Biancaniello/Linda Biancianiello)
TTITLE7=Through It All (Steve Harvey/Gary Brown)
TTITLE8=Al Jarreau, George Benson and Patti Austin - Let It Rain (Al Jarreau/Barry Eastmond)
TTITLE9=Not Like This (Jeremy Lubbock)
TTITLE10=Brite 'n' Sunny Babe (Al Jarreau)
TTITLE11=Secrets Of Love (Rex Rideout/Milton Davis)
TTITLE12=My Foolish Heart (Victor Young/Ned Washington)
TTITLE13=Goodhands Tonight (Al Jarreau/George Duke)
EXTD=YEAR: 2008
EXTT0=
EXTT1=
EXTT2=
EXTT3=
EXTT4=
EXTT5=
EXTT6=
EXTT7=
EXTT8=
EXTT9=
EXTT10=
EXTT11=
EXTT12=
EXTT13=
PLAYORDER=
